HIERARCHY
ROOT root
{
	OFFSET 0.000000 0.000000 0.000000
	CHANNELS 6 Xposition Yposition Zposition Zrotation Yrotation Xrotation
	JOINT lhip
	{
		OFFSET 0.058581 -0.082280 -0.017664
		CHANNELS 3 Zrotation Yrotation Xrotation
		JOINT lknee
		{
			OFFSET 0.043451 -0.386469 0.008037
			CHANNELS 3 Zrotation Yrotation Xrotation
			JOINT lankle
			{
				OFFSET -0.014790 -0.426874 -0.037428
				CHANNELS 3 Zrotation Yrotation Xrotation
				JOINT ltoe
				{
					OFFSET 0.041054 -0.060286 0.122042
					CHANNELS 3 Zrotation Yrotation Xrotation
					End Site
					{
						OFFSET 0.000000 0.000000 0.000000
					}
				}
			}
		}
	}
	JOINT rhip
	{
		OFFSET -0.060310 -0.090513 -0.013543
		CHANNELS 3 Zrotation Yrotation Xrotation
		JOINT rknee
		{
			OFFSET -0.043257 -0.383688 -0.004843
			CHANNELS 3 Zrotation Yrotation Xrotation
			JOINT rankle
			{
				OFFSET 0.019056 -0.420046 -0.034562
				CHANNELS 3 Zrotation Yrotation Xrotation
				JOINT rtoe
				{
					OFFSET -0.034840 -0.062106 0.130323
					CHANNELS 3 Zrotation Yrotation Xrotation
					End Site
					{
						OFFSET 0.000000 0.000000 0.000000
					}
				}
			}
		}
	}
	JOINT lowerback
	{
		OFFSET 0.004439 0.124404 -0.038385
		CHANNELS 3 Zrotation Yrotation Xrotation
		JOINT upperback
		{
			OFFSET 0.004488 0.137956 0.026820
			CHANNELS 3 Zrotation Yrotation Xrotation
			JOINT chest
			{
				OFFSET -0.002265 0.056032 0.002855
				CHANNELS 3 Zrotation Yrotation Xrotation
				JOINT lowerneck
				{
					OFFSET -0.013390 0.211636 -0.033468
					CHANNELS 3 Zrotation Yrotation Xrotation
					JOINT upperneck
					{
						OFFSET 0.010113 0.088937 0.050410
						CHANNELS 3 Zrotation Yrotation Xrotation
						End Site
						{
							OFFSET 0.000000 0.000000 0.000000
						}
					}
				}
				JOINT lclavicle
				{
					OFFSET 0.071702 0.114000 -0.018898
					CHANNELS 3 Zrotation Yrotation Xrotation
					JOINT lshoulder
					{
						OFFSET 0.122921 0.045205 -0.019046
						CHANNELS 3 Zrotation Yrotation Xrotation
						JOINT lelbow
						{
							OFFSET 0.255332 -0.015649 -0.022946
							CHANNELS 3 Zrotation Yrotation Xrotation
							JOINT lwrist
							{
								OFFSET 0.265709 0.012698 -0.007375
								CHANNELS 3 Zrotation Yrotation Xrotation
								End Site
								{
									OFFSET 0.000000 0.000000 0.000000
								}
							}
						}
					}
				}
				JOINT rclavicle
				{
					OFFSET -0.082954 0.112472 -0.023707
					CHANNELS 3 Zrotation Yrotation Xrotation
					JOINT rshoulder
					{
						OFFSET -0.113228 0.046853 -0.008472
						CHANNELS 3 Zrotation Yrotation Xrotation
						JOINT relbow
						{
							OFFSET -0.260127 -0.014369 -0.031269
							CHANNELS 3 Zrotation Yrotation Xrotation
							JOINT rwrist
							{
								OFFSET -0.269108 0.006794 -0.006027
								CHANNELS 3 Zrotation Yrotation Xrotation
								End Site
								{
									OFFSET 0.000000 0.000000 0.000000
								}
							}
						}
					}
				}
			}
		}
	}
}
MOTION
Frames: 17
Frame Time: 0.033333
2.492151 -0.002437 1.006934 -4.628529 0.944535 92.164305 6.899794 -0.606427 -4.492032 -9.335747 -6.419220 4.033947 3.508875 3.801299 -12.208863 0.000000 -0.000000 0.000000 -3.765178 -0.168502 -11.319871 6.736076 -1.370973 16.786741 2.368879 2.580050 -8.219752 0.000000 -0.000000 0.000000 -1.218415 0.667838 2.012391 1.623254 -1.333936 -3.064174 -0.976002 -0.775550 -2.888138 4.556088 -7.939027 -3.053480 2.927914 -15.808339 7.022934 -26.977119 4.556579 4.800050 -61.672024 -6.752412 10.991623 10.854556 -23.090348 -1.329760 -18.563688 -16.983639 -21.972149 24.991181 -1.521453 2.962180 63.497271 4.303189 14.879662 -13.616104 29.895263 11.470221 23.828978 5.951174 -2.380183 
2.487605 -0.003200 1.007045 -4.128860 0.887741 92.010655 7.021877 -0.801152 -4.550197 -9.145062 -6.918049 4.474688 3.276894 4.092888 -12.396383 0.000000 -0.000000 0.000000 -3.449598 0.083873 -11.110974 6.809787 -1.096619 16.988156 2.593019 1.522845 -8.475973 0.000000 -0.000000 0.000000 -1.343035 0.458390 2.176747 1.477825 -1.279917 -3.338881 -0.872276 -0.883300 -2.584408 4.645070 -8.105853 -3.300032 2.746190 -15.730212 7.273576 -26.866932 4.562326 4.765169 -61.374963 -6.806181 11.123146 10.429956 -23.150292 -0.915129 -17.526908 -16.557711 -21.853664 24.441410 -1.515331 2.754782 62.543574 3.860398 15.070671 -11.962764 30.069916 11.498287 22.379854 6.123131 -3.704183 
2.482311 -0.004246 1.007171 -3.631919 0.793319 91.891479 7.161254 -1.036861 -4.625634 -8.925269 -7.219627 4.919955 3.084296 4.225866 -12.681989 0.000000 -0.000000 0.000000 -3.116233 0.185887 -10.905866 6.769695 -1.204719 17.196304 2.519615 1.047417 -8.703537 0.000000 -0.000000 0.000000 -1.561169 0.461052 2.158854 1.460750 -1.353656 -3.410029 -0.845445 -1.046458 -2.541331 4.654026 -8.199027 -3.085472 2.691250 -15.726148 7.247355 -26.893120 4.609723 4.747610 -60.997616 -6.788030 11.140213 10.239922 -23.129300 -0.705430 -16.996707 -16.251587 -21.569936 24.330719 -1.770541 2.748019 61.922591 3.570335 14.842272 -11.644532 29.886652 11.034913 21.340053 6.221821 -4.457203 
2.474567 -0.005828 1.007377 -3.139125 0.697912 91.787742 7.417985 -1.221190 -4.851404 -8.655572 -7.566170 5.744486 2.853562 4.403633 -13.167182 0.000000 -0.000000 0.000000 -2.603667 0.269329 -10.599580 6.783139 -1.240772 17.300310 2.393744 0.541081 -8.939958 0.000000 -0.000000 0.000000 -1.793472 0.512985 2.140345 1.379126 -1.293795 -3.615284 -0.812181 -1.052561 -2.550246 4.541372 -8.425238 -2.910597 2.710183 -15.728908 7.451860 -26.909308 4.693622 4.757657 -60.575577 -6.836695 10.960752 10.160227 -23.011078 -0.717210 -16.950726 -16.081626 -21.110822 24.268564 -2.127560 2.591622 61.039121 2.783872 14.145178 -11.539121 29.650281 10.603249 21.181356 6.143057 -4.526800 
2.469276 -0.006854 1.007377 -2.886415 0.648329 91.682874 7.558360 -1.347509 -5.097736 -8.422700 -7.732601 6.575835 2.697467 4.568044 -13.554071 0.000000 -0.000000 0.000000 -2.270950 0.269456 -10.310444 6.862746 -1.227668 17.266524 2.269468 0.307802 -9.065645 0.000000 -0.000000 0.000000 -1.854370 0.560146 2.169807 1.300302 -1.262352 -3.772971 -0.835313 -1.048192 -2.509772 4.532872 -8.464797 -2.818168 2.617016 -15.623584 7.629358 -26.919613 4.821164 4.667800 -60.295996 -6.835311 10.844476 10.068371 -22.973041 -0.690472 -16.836480 -15.963214 -20.830714 24.159537 -2.314692 2.523629 60.491273 2.383327 13.840076 -11.274742 29.446156 10.457802 20.927516 6.081436 -4.652617 
2.461438 -0.008248 1.007223 -2.601795 0.625478 91.442099 7.686932 -1.599231 -5.711197 -7.970791 -7.936776 8.483608 2.481462 4.988105 -14.316569 0.000000 -0.000000 0.000000 -1.735656 0.212104 -9.753799 7.016017 -1.097996 17.126779 2.067202 0.090308 -9.194888 0.000000 -0.000000 0.000000 -1.831774 0.697683 2.320350 1.173524 -1.239700 -3.991511 -0.903846 -1.024558 -2.448656 4.430075 -8.506931 -2.791657 2.488951 -15.526486 7.919880 -26.925201 4.955267 4.484639 -59.972783 -6.768024 10.663481 9.955060 -22.947874 -0.549690 -16.484538 -15.646094 -20.297525 24.026149 -2.494271 2.400341 59.943797 1.893094 13.358928 -11.231330 28.926184 10.232308 20.758279 5.955256 -4.558772 
2.452927 -0.009167 1.006909 -2.406340 0.698673 91.065596 7.747799 -2.104890 -6.932649 -7.434017 -8.054629 11.885213 2.320768 5.782926 -15.478557 0.000000 -0.000000 0.000000 -1.150537 0.137572 -9.006035 7.350234 -0.870807 16.909210 1.851922 0.021867 -9.228149 0.000000 -0.000000 0.000000 -1.628892 0.978090 2.649545 1.029920 -1.228579 -4.252389 -1.024813 -0.995572 -2.287307 4.230908 -8.585336 -2.929216 2.412911 -15.467020 8.225561 -26.943691 4.961092 4.310749 -59.733547 -6.713920 10.456181 9.971759 -22.960698 -0.515778 -16.125975 -15.321077 -19.839674 23.883706 -2.558597 2.259690 59.512154 1.460012 12.805894 -11.314401 28.321499 10.056187 20.707448 5.804135 -4.503112 
2.444067 -0.009452 1.006069 -2.362456 0.931007 90.396432 7.886201 -2.838645 -8.845783 -7.050640 -7.718187 17.236016 2.148451 6.803213 -16.723888 0.000000 -0.000000 0.000000 -0.532173 0.012145 -7.927461 7.964094 -0.641085 16.624320 1.518093 0.165892 -9.198138 0.000000 -0.000000 0.000000 -1.108624 1.335599 3.412079 0.904259 -1.307836 -4.477303 -1.220933 -0.839956 -2.109760 4.017122 -8.722867 -3.255761 2.394226 -15.284870 8.386684 -27.017370 4.827455 4.039225 -59.581160 -6.545855 10.251089 10.095833 -23.180147 -0.531547 -15.554773 -14.904332 -19.458334 23.655445 -2.425468 2.166293 59.033802 1.165431 12.184973 -11.246632 27.818677 10.091738 20.681243 5.653490 -4.484223 
2.435001 -0.009188 1.004219 -2.541745 1.395302 89.376633 8.378192 -3.507612 -11.206303 -6.982202 -6.545293 24.200397 1.707810 7.583935 -17.333452 0.000000 -0.000000 0.000000 0.242875 -0.280966 -6.384717 8.744928 -0.260590 16.115894 1.037388 0.586158 -9.046551 0.000000 -0.000000 0.000000 -0.279654 1.819975 4.819729 0.831040 -1.386501 -4.769299 -1.359198 -0.672572 -1.922433 3.729912 -9.039562 -3.698250 2.578819 -14.897677 8.255097 -27.286928 4.512009 3.719664 -59.477063 -6.215149 10.007540 10.269926 -23.772617 -0.681609 -14.440709 -14.392802 -19.284528 23.278841 -2.018150 2.132665 58.381449 0.947159 11.503283 -10.747451 27.670808 10.177836 20.080294 5.576458 -4.759584 
2.423809 -0.008226 1.000622 -2.994918 2.094650 87.525136 9.259071 -3.808597 -14.622353 -7.023566 -3.955243 34.534707 0.667444 8.172381 -15.882869 0.000000 -0.000000 0.000000 1.100059 -1.143877 -3.358041 9.901350 0.411607 14.557754 0.111156 1.507134 -8.368949 0.000000 -0.000000 0.000000 0.834559 2.600854 7.344986 0.855724 -1.582860 -4.751871 -1.353597 -0.445223 -1.752941 3.405324 -9.590936 -4.546885 3.074839 -14.262855 8.027015 -28.044065 3.583191 3.341409 -59.319182 -5.727310 9.551258 10.737979 -24.765701 -1.251862 -12.861289 -13.776465 -19.155647 22.965760 -0.983956 2.126040 57.358766 1.038145 10.387509 -10.629754 27.465977 10.224769 19.727520 5.511137 -4.327757 
2.414563 -0.007061 0.997736 -3.665911 2.624703 85.937989 10.072980 -3.706908 -17.964060 -6.631231 -1.025351 43.386789 -0.223663 8.966197 -12.459147 0.000000 -0.000000 0.000000 1.598684 -2.244815 -0.611853 10.951835 1.088872 12.886987 -0.725262 2.617640 -7.526726 0.000000 -0.000000 0.000000 1.573143 3.485110 9.616563 0.931085 -1.759747 -4.806879 -1.177029 -0.320996 -1.716119 3.139161 -10.109620 -5.021157 3.682957 -13.773299 7.877798 -28.539112 2.819330 3.136239 -59.365832 -5.252169 9.253275 10.971646 -25.561226 -1.465658 -11.404657 -13.079172 -19.040439 22.743134 -0.116858 2.221452 56.491209 1.345133 9.447415 -10.361486 27.238143 10.338720 18.904451 5.406761 -3.865349 
2.405357 -0.005624 0.995203 -4.705241 2.995770 84.699728 10.756969 -3.650408 -21.676048 -5.148398 2.752709 51.432251 -0.274869 10.440246 -7.660567 0.000000 -0.000000 0.000000 2.033860 -3.116391 1.444923 11.809692 1.710292 11.673611 -1.682450 3.691704 -6.841830 0.000000 -0.000000 0.000000 1.994467 4.545137 11.495772 1.073564 -1.832052 -4.977746 -0.892775 -0.180866 -1.838819 2.828596 -10.793845 -4.956736 4.444368 -13.213853 7.686380 -28.863016 2.224202 3.083186 -59.590901 -4.596826 9.137479 11.110557 -26.348293 -1.560055 -9.879848 -11.921746 -18.544609 22.588142 0.604918 2.397992 55.656613 1.614872 8.666565 -10.028494 27.157790 10.238631 17.868716 5.138104 -3.507721 
2.396063 -0.004344 0.992960 -6.094768 3.363768 83.807191 11.291276 -3.345766 -25.037895 -3.142824 6.520880 57.431507 0.564073 11.663085 -4.047660 0.000000 -0.000000 0.000000 2.776179 -3.449198 2.624802 12.255586 2.265238 11.200306 -2.368120 4.585678 -6.313182 0.000000 -0.000000 0.000000 2.256360 5.293892 13.068962 1.282259 -1.660573 -5.358168 -0.612527 0.084096 -2.051678 2.572518 -11.373785 -4.750292 4.967151 -12.715355 7.871362 -29.140249 2.117847 3.046633 -59.862243 -3.900677 8.947590 11.199530 -27.041945 -1.836085 -9.450861 -11.382015 -18.516890 22.520206 1.179642 2.655275 55.138240 2.101822 8.124853 -10.222709 27.054417 9.491248 17.344528 5.014881 -3.375621 
2.387029 -0.003608 0.991182 -7.591485 3.719572 83.175799 11.109566 -2.712059 -27.692442 -2.467604 9.058515 61.045998 0.961091 11.183798 -3.901559 0.000000 -0.000000 0.000000 3.753157 -3.387048 3.146955 12.308655 2.829314 11.274375 -2.509530 5.323706 -5.836597 0.000000 -0.000000 0.000000 2.345776 5.719786 14.330558 1.550885 -1.313504 -5.915778 -0.395830 0.440577 -2.161044 2.682256 -11.596573 -4.530329 5.062445 -12.572420 8.290338 -29.304381 2.314343 3.056606 -60.142921 -3.287639 8.751732 11.208256 -27.346397 -1.856995 -9.741177 -11.512282 -18.836468 22.637990 1.386965 2.731704 54.883579 2.803867 7.862737 -10.699473 26.934918 8.857849 17.253807 5.059366 -3.407784 
2.378556 -0.003734 0.990254 -8.930210 4.034760 82.710035 9.990719 -2.211575 -29.629273 -2.133379 11.461031 62.581919 0.923065 11.024589 -4.699289 0.000000 -0.000000 0.000000 4.875991 -3.119677 3.473933 12.025052 3.256931 11.431185 -2.514378 5.884748 -5.502409 0.000000 -0.000000 0.000000 2.477033 6.016492 15.126658 1.812139 -1.151747 -6.365022 -0.298691 0.721747 -2.129317 2.835928 -11.603049 -4.183937 5.000866 -12.639217 8.666710 -29.260534 2.514814 3.094224 -60.582924 -2.646087 8.604719 11.194690 -27.111941 -1.636844 -10.245874 -11.650694 -18.849098 22.691094 1.433720 2.766180 55.141975 3.631751 7.861072 -11.342662 26.882253 8.363704 16.895641 5.173741 -3.822098 
2.370294 -0.004648 0.990120 -9.980032 4.275768 82.440048 8.153010 -2.155166 -30.822961 -1.915591 14.044921 62.535184 0.914670 11.224169 -5.603092 0.000000 -0.000000 0.000000 5.997031 -2.765043 3.766439 11.577288 3.413706 11.418066 -2.663441 6.250203 -5.402458 0.000000 -0.000000 0.000000 2.683407 6.180301 15.587383 1.977540 -1.260509 -6.845045 -0.344112 0.979316 -2.094372 2.925700 -11.606023 -3.599872 4.877858 -12.733824 8.939172 -28.866684 2.682605 3.130734 -61.215678 -1.832660 8.495346 11.069601 -26.453771 -1.087006 -10.821412 -11.491647 -18.224165 22.561001 1.383678 2.774524 56.085333 4.161915 8.081497 -12.092338 27.115592 7.821275 16.464599 5.283633 -4.447604 
2.362144 -0.005825 0.989906 -10.774990 4.510450 82.358543 5.889422 -2.329933 -31.293538 -2.328019 16.443869 61.389351 0.508975 10.729426 -6.173685 0.000000 -0.000000 0.000000 7.056224 -2.415768 3.948789 11.207001 3.420441 11.358426 -2.732516 6.474527 -5.432007 0.000000 -0.000000 0.000000 2.910747 6.384591 15.662430 2.149651 -1.357540 -7.093943 -0.344840 1.014670 -2.045718 2.873683 -11.674504 -3.025731 4.655396 -12.906975 8.993107 -28.534213 2.622953 3.193754 -61.803972 -1.055841 8.509104 10.876538 -25.594117 -0.526127 -11.287583 -11.128795 -17.093863 22.277920 1.271902 2.721155 57.012578 4.325012 8.396024 -12.390788 27.927636 7.390105 16.085187 5.430425 -5.384683 
